#!OML:ASF C:\Vicon Data\Big\jianyuan-13\jianyuan\Session 1\Capture.male.ASF
:FULLY-SPECIFIED
:DEGREES
98
root -8.482717 17.777442 -17.872218 3.073849 12.293507 2.931071
lowerback -7.040504 1.419919 -2.266958 
upperback 3.811253 2.215387 -0.999267 
thorax 7.921690 0.993469 0.524505 
lowerneck -0.589467 -2.950740 2.207132 
upperneck 16.013281 -3.876827 -1.566997 
head 4.823964 -1.852030 -1.013779 
rclavicle 0.000000 0.000000 
rhumerus -37.063880 -14.548384 -83.195479 
rradius 41.149233 
rwrist 20.588239 
rhand -18.922785 -19.167836 
rfingers 0.000000 
rthumb 7.379700 -49.019108 
lclavicle 0.000000 0.000000 
lhumerus -36.260919 28.633028 70.222478 
lradius 27.667399 
lwrist -51.925220 
lhand -18.216297 1.353832 
lfingers 0.000000 
lthumb 8.061615 31.180092 
rfemur -4.192101 5.266196 24.413768 
rtibia 25.212689 
rfoot -23.932114 -8.739542 
rtoes -24.768378 
lfemur -51.163633 0.132250 -17.620424 
ltibia 41.860044 
lfoot -13.534832 0.407592 
ltoes -44.838514 
99
root -8.455554 17.754668 -17.777626 3.114919 12.156672 2.766251
lowerback -7.342838 1.440626 -2.292459 
upperback 3.742816 2.238957 -0.801733 
thorax 8.014354 0.996314 0.757872 
lowerneck -0.568576 -2.940558 2.034912 
upperneck 16.026125 -3.835406 -1.693650 
head 4.825500 -1.848806 -1.022610 
rclavicle 0.000000 0.000000 
rhumerus -37.133552 -14.334898 -83.002137 
rradius 41.238748 
rwrist 20.335985 
rhand -18.966092 -19.107217 
rfingers 0.000000 
rthumb 7.337885 -48.959982 
lclavicle 0.000000 0.000000 
lhumerus -36.562028 28.941429 70.127377 
lradius 27.627532 
lwrist -52.432331 
lhand -18.237195 1.540687 
lfingers 0.000000 
lthumb 8.041420 31.367707 
rfemur -3.909715 5.388798 24.607723 
rtibia 25.240439 
rfoot -24.206531 -8.741353 
rtoes -25.023195 
lfemur -49.879805 -0.086628 -17.399076 
ltibia 40.239463 
lfoot -13.412799 0.876317 
ltoes -44.483950 
100
root -8.424327 17.734282 -17.682743 3.052963 11.972069 2.573954
lowerback -7.541920 1.483888 -1.821091 
upperback 3.709998 2.263117 -0.960984 
thorax 8.118317 1.036859 0.335163 
lowerneck -0.535378 -2.912908 2.237412 
upperneck 15.988017 -3.828387 -1.557207 
head 4.807687 -1.826632 -1.012526 
rclavicle 0.000000 0.000000 
rhumerus -37.165159 -14.523781 -83.279840 
rradius 41.271859 
rwrist 20.255041 
rhand -19.113122 -19.186769 
rfingers 0.000000 
rthumb 7.195989 -49.044425 
lclavicle 0.000000 0.000000 
lhumerus -36.662676 28.939181 69.682110 
lradius 27.583323 
lwrist -52.237552 
lhand -18.238056 1.632974 
lfingers 0.000000 
lthumb 8.040616 31.459971 
rfemur -3.494740 5.375884 24.793773 
rtibia 25.219509 
rfoot -24.451115 -8.591895 
rtoes -25.197276 
lfemur -48.426923 -0.280930 -17.145300 
ltibia 38.540350 
lfoot -13.360393 1.289272 
ltoes -44.441780 
101
root -8.392938 17.712485 -17.585861 3.177902 11.722361 2.383217
lowerback -7.963430 1.543758 -1.802141 
upperback 3.625830 2.334978 -0.760439 
thorax 8.264008 1.064723 0.558038 
lowerneck -0.405223 -2.898177 2.004469 
upperneck 15.902906 -3.777814 -1.664999 
head 4.762496 -1.821683 -1.001970 
rclavicle 0.000000 0.000000 
rhumerus -37.382893 -14.424975 -83.073343 
rradius 41.458427 
rwrist 20.286329 
rhand -19.153166 -19.209170 
rfingers 0.000000 
rthumb 7.157295 -49.068156 
lclavicle 0.000000 0.000000 
lhumerus -36.922681 29.195373 69.657056 
lradius 27.522832 
lwrist -52.560375 
lhand -18.407453 1.687400 
lfingers 0.000000 
lthumb 7.877092 31.520624 
rfemur -3.267930 5.422498 24.963672 
rtibia 25.171870 
rfoot -24.696224 -8.448148 
rtoes -25.312067 
lfemur -47.169370 -0.508108 -16.834519 
ltibia 36.847282 
lfoot -13.459648 1.765368 
ltoes -44.279664 
102
root -8.359924 17.692006 -17.487028 3.334116 11.475238 2.209725
lowerback -8.400890 1.591974 -1.327123 
upperback 3.520568 2.366225 -0.934800 
thorax 8.431462 1.109198 0.124574 
lowerneck -0.299689 -2.835179 2.086354 
upperneck 15.877414 -3.719373 -1.490752 
head 4.740446 -1.779002 -0.957401 
rclavicle 0.000000 0.000000 
rhumerus -37.390796 -14.472759 -83.455915 
rradius 41.512965 
rwrist 20.121625 
rhand -18.982627 -19.407763 
rfingers 0.000000 
rthumb 7.321875 -49.261054 
lclavicle 0.000000 0.000000 
lhumerus -37.123509 29.308097 69.089443 
lradius 27.533335 
lwrist -52.168637 
lhand -18.252721 1.378170 
lfingers 0.000000 
lthumb 8.026457 31.205722 
rfemur -3.064371 5.548063 25.106506 
rtibia 25.147031 
rfoot -24.991892 -8.315948 
rtoes -25.280928 
lfemur -45.986393 -0.777432 -16.545248 
ltibia 35.250195 
lfoot -13.665346 2.223245 
ltoes -44.234840 
103
root -8.325573 17.670272 -17.388103 3.497156 11.299373 1.988843
lowerback -8.806267 1.643003 -1.178643 
upperback 3.395534 2.412179 -0.809389 
thorax 8.532536 1.134382 0.191886 
lowerneck -0.296229 -2.830185 2.022762 
upperneck 15.995685 -3.690422 -1.627097 
head 4.774844 -1.775368 -0.989241 
rclavicle 0.000000 0.000000 
rhumerus -37.533929 -14.350523 -83.328335 
rradius 41.546582 
rwrist 20.271650 
rhand -18.922247 -19.384448 
rfingers 0.000000 
rthumb 7.380228 -49.235722 
lclavicle 0.000000 0.000000 
lhumerus -37.421509 29.511906 68.930105 
lradius 27.515300 
lwrist -52.773942 
lhand -18.322235 1.562111 
lfingers 0.000000 
lthumb 7.959312 31.392219 
rfemur -2.914214 5.489425 25.264474 
rtibia 25.183779 
rfoot -25.296534 -8.011665 
rtoes -25.148254 
lfemur -44.956708 -1.074855 -16.213268 
ltibia 33.869653 
lfoot -13.802243 2.512161 
ltoes -43.876109 
104
root -8.291975 17.645389 -17.289385 3.758553 11.160134 1.829084
lowerback -9.255986 1.661651 -0.984029 
upperback 3.233058 2.418921 -0.823268 
thorax 8.627500 1.147441 0.080868 
lowerneck -0.244114 -2.792155 2.061759 
upperneck 16.063676 -3.630555 -1.695612 
head 4.785897 -1.747414 -1.014425 
rclavicle 0.000000 0.000000 
rhumerus -37.756087 -14.233306 -83.468180 
rradius 41.754694 
rwrist 20.172197 
rhand -18.873185 -19.307585 
rfingers 0.000000 
rthumb 7.427529 -49.157185 
lclavicle 0.000000 0.000000 
lhumerus -37.633113 29.271382 68.812491 
lradius 27.632303 
lwrist -52.216313 
lhand -18.106999 1.578290 
lfingers 0.000000 
lthumb 8.167091 31.400424 
rfemur -2.838003 5.412528 25.379978 
rtibia 25.123555 
rfoot -25.440606 -7.983723 
rtoes -26.008176 
lfemur -44.122636 -1.356004 -16.011659 
ltibia 32.666091 
lfoot -13.845078 2.847286 
ltoes -43.702153 
105
root -8.258651 17.623814 -17.193120 4.041175 11.038164 1.690915
lowerback -9.690466 1.670499 -0.958710 
upperback 3.080670 2.421786 -0.703990 
thorax 8.711089 1.145237 0.204873 
lowerneck -0.197931 -2.796061 2.030565 
upperneck 16.095531 -3.601958 -1.920775 
head 4.784088 -1.747818 -1.077150 
rclavicle 0.000000 0.000000 
rhumerus -37.845125 -14.041030 -83.415994 
rradius 41.850945 
rwrist 20.190810 
rhand -18.828658 -19.292036 
rfingers 0.000000 
rthumb 7.470558 -49.140092 
lclavicle 0.000000 0.000000 
lhumerus -37.828178 29.052418 68.988018 
lradius 27.767758 
lwrist -51.749976 
lhand -18.136893 1.668011 
lfingers 0.000000 
lthumb 8.138219 31.491321 
rfemur -2.802833 5.329767 25.440899 
rtibia 25.126957 
rfoot -25.662785 -7.802863 
rtoes -26.270932 
lfemur -43.359842 -1.678518 -15.815079 
ltibia 31.573208 
lfoot -13.933217 3.125729 
ltoes -44.193175 
106
root -8.222299 17.599727 -17.097124 4.153283 10.980692 1.566198
lowerback -9.905852 1.685892 -0.664337 
upperback 2.991216 2.413781 -0.808148 
thorax 8.756698 1.160027 -0.066745 
lowerneck -0.227822 -2.764592 1.986415 
upperneck 16.143660 -3.600010 -1.622710 
head 4.811292 -1.732470 -0.979165 
rclavicle 0.000000 0.000000 
rhumerus -37.968383 -14.037456 -83.628705 
rradius 42.048462 
rwrist 19.953596 
rhand -18.570818 -19.107966 
rfingers 0.000000 
rthumb 7.719402 -48.947104 
lclavicle 0.000000 0.000000 
lhumerus -37.927663 28.918104 68.749166 
lradius 27.796933 
lwrist -51.536105 
lhand -18.156128 1.536100 
lfingers 0.000000 
lthumb 8.119605 31.360072 
rfemur -2.602894 5.326625 25.518184 
rtibia 25.205833 
rfoot -25.935347 -7.695705 
rtoes -26.287887 
lfemur -42.432076 -1.925737 -15.723888 
ltibia 30.476830 
lfoot -13.858010 3.114579 
ltoes -43.940599 
107
root -8.189705 17.578333 -16.999929 4.292615 10.917867 1.442342
lowerback -10.223119 1.749381 -0.684393 
upperback 2.979327 2.497620 -0.717848 
thorax 8.923645 1.194943 0.065124 
lowerneck -0.326176 -2.849418 2.083801 
upperneck 16.087385 -3.690847 -1.845762 
head 4.802033 -1.784613 -1.068412 
rclavicle 0.000000 0.000000 
rhumerus -37.922545 -13.969500 -83.601271 
rradius 42.163169 
rwrist 19.867953 
rhand -18.735370 -19.340098 
rfingers 0.000000 
rthumb 7.560570 -49.184952 
lclavicle 0.000000 0.000000 
lhumerus -37.998689 29.284851 68.671650 
lradius 27.815937 
lwrist -52.382422 
lhand -18.497733 1.486780 
lfingers 0.000000 
lthumb 7.789907 31.323285 
rfemur -2.415339 5.529482 25.642594 
rtibia 25.285952 
rfoot -26.295169 -7.715708 
rtoes -26.080005 
lfemur -41.473781 -2.214496 -15.570231 
ltibia 29.244943 
lfoot -13.678700 3.227538 
ltoes -43.693529 
